<svg width="1238" height="732" viewBox="0 0 1238 732" fill="none" xmlns="http://www.w3.org/2000/svg">
<g filter="url(#filter0_ddi_4:2)">
<path d="M699.518 458.264C697.935 456.68 695.56 455.097 693.185 455.097C688.436 454.306 686.061 455.889 682.104 457.472C678.146 462.221 675.771 469.345 675.771 470.137C655.191 545.333 591.076 658.524 531.711 668.022L527.753 668.814L526.961 664.856C515.088 611.823 554.665 511.297 600.575 404.439L604.533 393.357C628.279 334.783 651.234 280.167 658.357 241.381C666.273 197.055 660.732 162.227 643.318 140.855C631.445 125.024 612.448 117.109 589.493 117.109C552.291 117.109 507.964 149.562 465.221 208.928L448.599 231.091L458.097 204.97C466.804 180.432 474.72 155.894 481.052 132.148C492.134 90.988 491.342 60.1179 477.886 40.3293C469.179 26.8732 454.931 18.9577 435.934 16.5831C430.393 15 424.061 15 416.937 15C337.783 16.5831 255.463 173.308 212.719 266.71L205.595 282.541V265.127C204.012 211.302 178.683 181.224 128.024 174.1C100.32 170.142 72.6164 176.475 52.0363 192.305C34.6224 204.97 21.9577 223.967 18 243.756C18 243.756 18 246.922 18.7915 250.088C19.5831 254.046 22.7493 255.629 27.4985 255.629C37.7885 255.629 41.7463 247.713 42.5378 242.964C45.704 227.133 63.9094 197.846 93.1965 197.846C104.278 197.846 112.193 201.012 118.526 209.719C153.354 260.378 91.6134 445.599 55.2025 555.623L54.4109 557.998C48.8701 574.62 44.1209 589.659 39.3716 603.116C36.997 609.448 39.3716 617.363 42.5378 622.904C44.9124 626.07 52.8278 635.569 73.4079 637.943C90.8219 638.735 112.985 636.36 120.109 617.363C149.396 527.919 172.351 450.348 187.39 386.233C212.719 318.161 330.659 45.8702 413.771 39.5378H416.937L417.729 42.704C421.686 56.9517 401.106 114.734 370.236 196.263L368.653 200.221C336.2 287.29 296.623 395.732 276.834 493.883C269.71 526.336 272.085 549.291 302.955 558.789C317.994 562.747 328.284 561.955 336.2 557.206C343.324 554.04 348.865 547.708 352.822 539.001C355.988 531.085 358.363 522.378 360.738 510.505L361.529 507.339C362.321 501.798 363.112 496.258 363.904 488.342C390.025 364.862 473.137 211.302 541.209 159.852C558.623 147.188 574.454 141.647 587.91 141.647H590.285L591.076 142.438C609.282 160.644 582.369 227.925 542.792 320.535L540.418 325.284C509.548 400.481 474.72 484.384 460.472 559.581C450.182 609.448 454.931 649.817 473.137 672.771C484.218 686.228 499.257 692.56 518.255 692.56C608.49 692.56 679.729 541.375 698.726 472.511C699.518 470.928 701.892 463.804 699.518 458.264Z" fill="white"/>
<path d="M1200.97 457.472C1200.18 455.097 1197.81 453.514 1195.43 453.514C1192.26 452.723 1188.31 452.723 1185.14 455.097C1179.6 458.264 1177.23 466.179 1177.23 466.179C1127.36 607.865 1083.82 640.318 1062.45 647.442L1060.87 648.234L1059.29 647.442C1016.54 624.487 1064.83 488.342 1111.53 356.155L1112.32 352.197C1137.65 280.167 1161.39 212.094 1172.48 162.227C1180.39 118.692 1175.64 86.2388 1159.81 67.2418C1147.94 51.4109 1128.94 43.4955 1104.4 43.4955C1006.25 43.4955 924.724 166.185 874.065 268.293L865.358 286.499L866.149 266.71C868.524 228.716 862.192 201.012 845.569 181.224C828.947 159.852 801.243 150.354 762.457 151.937C741.877 151.937 719.714 161.435 701.509 178.058C684.886 193.097 673.805 212.886 672.222 230.299C672.222 235.84 673.013 239.006 674.596 241.381C676.179 243.756 678.554 243.756 680.137 244.547C684.095 244.547 687.261 242.964 690.427 240.589C695.176 237.423 696.76 230.299 696.76 228.716C697.551 216.052 704.675 203.387 716.548 192.305C728.421 182.015 742.669 176.475 757.708 176.475C766.415 176.475 772.748 179.641 776.705 185.973C802.035 221.592 764.832 352.988 735.545 458.264C716.548 520.004 706.258 560.372 703.092 584.119C702.3 586.493 701.509 595.2 707.841 603.907C714.173 611.031 724.464 615.78 737.92 616.572C772.748 618.947 780.663 605.49 783.829 595.2C817.865 458.264 950.053 68.0333 1101.24 68.0333H1103.61L1105.99 70.408C1114.69 87.8219 1091.74 161.435 1050.58 274.626C1020.5 360.904 982.506 468.554 969.841 543.75C962.718 594.409 967.467 630.82 985.672 652.191C998.337 666.439 1017.33 674.354 1043.45 674.354C1097.28 674.354 1154.27 599.95 1200.18 470.137C1200.97 468.554 1203.35 462.221 1200.97 457.472Z" fill="white"/>
</g>
<defs>
<filter id="filter0_ddi_4:2" x="0" y="0" width="1238" height="731.56" filterUnits="userSpaceOnUse" color-interpolation-filters="sRGB">
<feFlood flood-opacity="0" result="BackgroundImageFix"/>
<feColorMatrix in="SourceAlpha" type="matrix" values="0 0 0 0 0 0 0 0 0 0 0 0 0 0 0 0 0 0 127 0" result="hardAlpha"/>
<feOffset dx="9" dy="12"/>
<feGaussianBlur stdDeviation="13.5"/>
<feComposite in2="hardAlpha" operator="out"/>
<feColorMatrix type="matrix" values="0 0 0 0 0.501961 0 0 0 0 0 0 0 0 0 0.501961 0 0 0 0.25 0"/>
<feBlend mode="normal" in2="BackgroundImageFix" result="effect1_dropShadow_4:2"/>
<feColorMatrix in="SourceAlpha" type="matrix" values="0 0 0 0 0 0 0 0 0 0 0 0 0 0 0 0 0 0 127 0" result="hardAlpha"/>
<feOffset dx="2" dy="8"/>
<feGaussianBlur stdDeviation="5"/>
<feComposite in2="hardAlpha" operator="out"/>
<feColorMatrix type="matrix" values="0 0 0 0 0.501961 0 0 0 0 0 0 0 0 0 0.501961 0 0 0 0.75 0"/>
<feBlend mode="normal" in2="effect1_dropShadow_4:2" result="effect2_dropShadow_4:2"/>
<feBlend mode="normal" in="SourceGraphic" in2="effect2_dropShadow_4:2" result="shape"/>
<feColorMatrix in="SourceAlpha" type="matrix" values="0 0 0 0 0 0 0 0 0 0 0 0 0 0 0 0 0 0 127 0" result="hardAlpha"/>
<feOffset/>
<feGaussianBlur stdDeviation="1"/>
<feComposite in2="hardAlpha" operator="arithmetic" k2="-1" k3="1"/>
<feColorMatrix type="matrix" values="0 0 0 0 0.501961 0 0 0 0 0 0 0 0 0 0.501961 0 0 0 0.75 0"/>
<feBlend mode="normal" in2="shape" result="effect3_innerShadow_4:2"/>
</filter>
</defs>
</svg>
